<?xml version="1.0" encoding="utf-8"?>
<!-- Generator: Adobe Illustrator 21.1.0, SVG Export Plug-In . SVG Version: 6.00 Build 0)  -->
<svg version="1.1" id="Layer_1" xmlns="http://www.w3.org/2000/svg" xmlns:xlink="http://www.w3.org/1999/xlink" x="0px" y="0px"
	 viewBox="0 0 1590 1590" style="enable-background:new 0 0 1590 1590;" xml:space="preserve">
<style type="text/css">
	.st0{fill:#FFFFFF;}
</style>
<g>
	<circle class="st0" cx="795" cy="795" r="445"/>
	<g>
		<path class="st0" d="M657.9,323.3L397.5,106.5l57.8,334.9C511.5,387,580.8,346,657.9,323.3z"/>
		<path class="st0" d="M1135.2,438.7l57.3-332.2L932.9,322.6C1009.7,344.8,1078.8,385.1,1135.2,438.7z"/>
		<path class="st0" d="M796.6,303.5c39.6,0,78.2,4.7,115.1,13.6L795,0L677.9,317.9C715.9,308.5,755.7,303.5,796.6,303.5z"/>
		<path class="st0" d="M1590,795l-315.7-116.2c9,37.3,13.8,76.2,13.8,116.2s-4.8,79-13.8,116.2L1590,795z"/>
		<path class="st0" d="M1268.2,656l215.3-258.5l-332.1,57.3C1205.1,510.8,1245.7,579.5,1268.2,656z"/>
		<path class="st0" d="M441.5,455.3l-334.9-57.8l217.7,261.4C346.5,581.5,387.3,511.9,441.5,455.3z"/>
		<path class="st0" d="M796.6,1286.5c-40.9,0-80.7-5-118.7-14.4L795,1590l116.8-317.1C874.8,1281.8,836.3,1286.5,796.6,1286.5z"/>
		<path class="st0" d="M932.9,1267.4l259.6,216.1l-57.3-332.2C1078.8,1204.9,1009.7,1245.2,932.9,1267.4z"/>
		<path class="st0" d="M1151.4,1135.2l332.1,57.3L1268.2,934C1245.7,1010.5,1205.1,1079.2,1151.4,1135.2z"/>
		<path class="st0" d="M455.3,1148.6l-57.8,334.9l260.4-216.8C580.8,1244,511.5,1203,455.3,1148.6z"/>
		<path class="st0" d="M305.1,795c0-40.5,4.9-79.9,14.2-117.6L0,795l319.3,117.6C310,874.9,305.1,835.5,305.1,795z"/>
		<path class="st0" d="M324.2,931.1l-217.7,261.4l334.9-57.8C387.3,1078.1,346.5,1008.5,324.2,931.1z"/>
	</g>
</g>
</svg>
